# xmcd CD database file
#
# Track frame offsets:
#	150
#	16523
#	30491
#	44161
#	57858
#	72059
#	86483
#	102698
#	117630
#	134041
#	150838
#	166884
#	184680
#	200867
#	218743
#	235559
#	251864
#	267078
#	284948
#	303878
#	318966
#	335398
#
# Disc length: 4688 seconds
#
# Revision: 20
# Processed by: cddbd v1.5.2PL0 Copyright (c) Steve Scherf et al.
# Submitted via: CDex 1.70beta2
#
DISCID=3f124e16
DTITLE=Alabama - The Essential Alabama  [2005]  - Disc 1
DYEAR=2005
DGENRE=Country
TTITLE0=Five O'clock 500
TTITLE1=Keepin' Up
TTITLE2=How Do You Fall In Love
TTITLE3=Tennessee River
TTITLE4=Why Lady Why
TTITLE5=Old Flame
TTITLE6=Feels So Right
TTITLE7=Love In The First Degree
TTITLE8=Mountain Music
TTITLE9=Take Me Down
TTITLE10=Close Enough To Perfect
TTITLE11=Dixieland Delight
TTITLE12=The Closer You Get
TTITLE13=Lady Down On Love
TTITLE14=Roll On (Eighteen Wheeler)
TTITLE15=When We Make Love
TTITLE16=If You're Gonna Play In Texas (You Gotta Have A Fiddle In The Band)
TTITLE17=(There's A) Fire In The Night
TTITLE18=There's No Way
TTITLE19=Forty Hour Week (For A Livin')
TTITLE20=Can't Keep A Good Man Down
TTITLE21=She And I
EXTD=RCA YEAR: 2005
EXTT0=
EXTT1=
EXTT2=
EXTT3=
EXTT4=
EXTT5=
EXTT6=
EXTT7=
EXTT8=
EXTT9=
EXTT10=
EXTT11=
EXTT12=
EXTT13=
EXTT14=
EXTT15=
EXTT16=
EXTT17=
EXTT18=
EXTT19=
EXTT20=
EXTT21=
PLAYORDER=
